HIERARCHY
ROOT hip
{
	OFFSET 0.000000 0.000000 0.000000 
	CHANNELS 6 Xposition Yposition Zposition Xrotation Zrotation Yrotation
	JOINT abdomen
	{
		OFFSET 0.000000 3.402643 0.000000 
		CHANNELS 3 Xrotation Zrotation Yrotation
		JOINT chest
		{
			OFFSET 0.000000 8.438565 -0.680529 
			CHANNELS 3 Xrotation Zrotation Yrotation
			JOINT neck
			{
				OFFSET 0.000000 10.207942 -0.272212 
				CHANNELS 3 Xrotation Zrotation Yrotation
				JOINT head
				{
					OFFSET 0.000000 3.130431 0.000000 
					CHANNELS 3 Xrotation Zrotation Yrotation
					End Site
					{
						OFFSET 0.000000 3.130435 0.000000 
					}
				}
			}
			JOINT lCollar
			{
				OFFSET 3.470700 6.669187 -0.816635 
				CHANNELS 3 Yrotation Zrotation Xrotation
				JOINT lShldr
				{
					OFFSET 3.198488 0.000000 0.000000 
					CHANNELS 3 Zrotation Yrotation Xrotation
					JOINT lForeArm
					{
						OFFSET 10.139888 0.000000 0.000000 
						CHANNELS 3 Yrotation Zrotation Xrotation
						JOINT lHand
						{
							OFFSET 8.370511 0.000000 0.000000 
							CHANNELS 3 Zrotation Yrotation Xrotation
							End Site
							{
								OFFSET 4.083176 0.000000 0.000000 
							}
						}
					}
				}
			}
			JOINT rCollar
			{
				OFFSET -3.470700 6.669187 -0.816635 
				CHANNELS 3 Yrotation Zrotation Xrotation
				JOINT rShldr
				{
					OFFSET -3.198488 0.000000 0.000000 
					CHANNELS 3 Zrotation Yrotation Xrotation
					JOINT rForeArm
					{
						OFFSET -10.139888 0.000000 0.000000 
						CHANNELS 3 Yrotation Zrotation Xrotation
						JOINT rHand
						{
							OFFSET -8.370511 0.000000 0.000000 
							CHANNELS 3 Zrotation Yrotation Xrotation
							End Site
							{
								OFFSET -4.083176 0.000000 0.000000 
							}
						}
					}
				}
			}
		}
	}
	JOINT lThigh
	{
		OFFSET 5.308129 -1.633274 1.361059 
		CHANNELS 3 Xrotation Zrotation Yrotation
		JOINT lShin
		{
			OFFSET -2.041588 -20.007561 0.000000 
			CHANNELS 3 Xrotation Zrotation Yrotation
			JOINT lFoot
			{
				OFFSET 0.000000 -19.190928 -1.224953 
				CHANNELS 3 Xrotation Yrotation Zrotation
				End Site
				{
					OFFSET 0.000000 -2.449906 4.627600 
				}
			}
		}
	}
	JOINT rThigh
	{
		OFFSET -5.308129 -1.633274 1.361059 
		CHANNELS 3 Xrotation Zrotation Yrotation
		JOINT rShin
		{
			OFFSET 2.041588 -20.007561 0.000000 
			CHANNELS 3 Xrotation Zrotation Yrotation
			JOINT rFoot
			{
				OFFSET 0.000000 -19.190928 -1.224953 
				CHANNELS 3 Xrotation Yrotation Zrotation
				End Site
				{
					OFFSET 0.000000 -2.449906 4.627600 
				}
			}
		}
	}
}
MOTION
Frames: 9
Frame Time: 0.033333
0.976941 42.578323 9.531066 -21.586290 9.293141 16.618353 37.993954 -2.927197 -3.492801 -20.839844 -0.007467 -0.001337 -1.439726 17.016546 55.336349 -5.806170 -1.925131 0.391980 -6.249050 -0.109138 -0.001707 -66.737358 -8.023851 -15.554490 -67.369629 4.505669 -23.825386 -36.272591 -1.400051 -29.677790 3.250129 0.108978 -0.003601 69.180458 -20.377363 -44.074951 162.038300 -9.496761 11.556497 34.066433 32.516087 -20.513224 8.511240 -4.629182 -31.266281 38.426651 16.502872 -6.017250 1.201362 33.967869 -24.353228 32.087639 -10.037589 3.810624 17.444357 -10.028695 6.199277 -7.318876 -16.786240 11.432127 
0.100606 41.844387 9.143109 -19.210634 11.240292 24.718258 38.032375 -1.901779 -1.251455 -20.839844 -0.007467 -0.001337 -7.042872 14.215508 46.113533 -5.806170 -1.925131 0.391980 -6.249050 -0.109138 -0.001707 -71.617798 -5.356637 -13.838075 -59.569107 2.941336 -19.996239 -35.149555 -0.819608 -24.182364 3.250129 0.108978 -0.003601 54.554890 -12.793484 -36.339111 157.356277 -7.922206 8.973526 26.181616 21.987076 -14.564166 0.932553 -8.082000 -31.978016 31.871674 18.861124 -6.555317 7.578115 35.236496 -21.633297 31.899443 -6.550915 3.869383 19.664652 -10.451574 -0.049927 -15.220933 -19.518202 9.834884 
-0.629403 41.234531 8.917120 -17.317234 12.924010 32.349407 38.464207 -0.987944 1.151382 -20.839844 -0.007467 -0.001337 -12.694465 9.790916 34.029835 -5.806170 -1.925131 0.391980 -6.249050 -0.109138 -0.001707 -74.098724 -1.619843 -13.681441 -52.687870 1.787933 -16.848099 -33.087635 -1.019110 -19.925188 3.250129 0.108978 -0.003601 46.294113 -5.312842 -31.103001 150.810226 -6.898002 10.163219 18.121449 15.201909 -4.133752 -0.648460 -5.845261 -30.218351 8.502131 15.289741 -13.604352 22.932652 30.939558 -20.885870 31.278978 -4.111119 3.816203 22.455976 -8.986730 -4.501217 -20.626524 -21.248560 8.974378 
-0.752119 40.011673 9.219695 -17.612339 12.838305 36.679089 38.603333 1.940590 6.639983 -20.839844 -0.007467 -0.001337 -16.055166 4.310657 22.220890 -5.806170 -1.925131 0.391980 -6.249050 -0.109138 -0.001707 -74.510536 4.157725 -15.051170 -45.812576 0.763481 -14.195482 -30.992104 -1.608913 -16.696390 3.250129 0.108978 -0.003601 41.134956 1.778827 -28.018490 142.543777 -6.285776 12.521171 10.454537 10.197993 5.479194 -5.878088 -3.796946 -28.051079 3.661703 8.561381 -15.630149 28.834597 28.665077 -18.626616 29.702946 -1.756666 4.559801 29.117506 -6.278312 -6.939933 -27.199165 -22.258833 8.557869 
-0.718773 39.828453 9.593359 -18.993149 13.027643 36.131775 39.204407 2.638532 13.378788 -20.839844 -0.007467 -0.001337 -17.031490 -0.954581 13.119005 -5.806170 -1.925131 0.391980 -6.249050 -0.109138 -0.001707 -73.330704 11.584662 -18.246485 -38.760136 0.680975 -12.079493 -29.341803 -2.214859 -13.252494 3.250129 0.108978 -0.003601 35.877926 9.074079 -26.124155 131.865295 -5.173419 13.737698 2.588043 5.890223 12.614300 -7.802270 -4.318674 -37.643269 8.260442 8.102715 -19.964949 35.099869 42.970886 -28.113972 31.639919 -1.698560 4.375722 28.561069 -5.335979 -6.676095 -28.386135 -21.230911 8.069407 
-0.542447 40.820454 9.928601 -20.640375 13.680500 31.375267 40.155155 1.116112 20.136507 -20.839844 -0.007467 -0.001337 -16.328165 -5.305719 7.619717 -5.806170 -1.925131 0.391980 -6.249050 -0.109138 -0.001707 -70.510368 19.861942 -22.205412 -31.640728 0.936253 -9.450755 -26.537245 -3.420172 -8.384421 3.250129 0.108978 -0.003601 29.495575 15.937418 -24.846210 118.602806 -2.312589 13.902234 -6.020921 1.975109 17.991615 -3.515811 -2.528293 -34.586224 7.623070 8.329744 -17.964643 33.120262 40.933445 -23.090357 37.063446 -4.636733 1.860960 19.716413 -6.518193 -3.548658 -22.738714 -17.589674 9.439487 
-0.150115 42.421799 10.449418 -21.823092 15.544197 23.876802 40.955887 -3.341877 25.824175 -20.839844 -0.007467 -0.001337 -14.122940 -8.661351 4.667451 -5.806170 -1.925131 0.391980 -6.249050 -0.109138 -0.001707 -66.067787 28.379778 -25.608366 -25.731657 0.942231 -6.183125 -22.417578 -4.582031 -3.351001 3.250129 0.108978 -0.003601 22.921663 21.031107 -23.729979 103.979416 2.606323 14.355794 -12.975347 -2.116668 21.939157 9.131955 -0.648346 -33.819801 -4.386743 10.284083 -17.913538 39.634106 35.044483 -25.434681 44.534428 -10.682271 -4.358657 5.102371 -7.623225 2.625432 -9.071896 -11.268770 12.888720 
0.636826 43.665600 11.163768 -23.906139 17.213577 16.172157 41.733459 -7.107286 31.482292 -20.839844 -0.007467 -0.001337 -10.748076 -11.262707 2.194939 -5.806170 -1.925131 0.391980 -6.249050 -0.109138 -0.001707 -60.045128 35.348396 -28.164467 -22.653017 1.451180 -2.992632 -17.767696 -4.781785 2.155610 3.250129 0.108978 -0.003601 17.646654 23.757242 -22.407915 89.131226 8.094102 15.902020 -15.693907 -5.844700 23.668255 14.990030 -8.877006 -40.604725 9.213279 16.299175 -16.226065 36.603249 33.202309 -33.275116 49.039246 -16.171246 -10.771920 -2.909733 -8.072577 9.182202 5.104184 -4.542066 13.507489 
1.700818 44.650280 11.935650 -26.739985 18.462402 11.618907 42.786747 -8.059737 35.379246 -20.839844 -0.007467 -0.001337 -7.225557 -13.107194 -0.853825 -5.806170 -1.925131 0.391980 -6.249050 -0.109138 -0.001707 -53.206188 39.408482 -30.810474 -24.735001 3.329442 -1.767914 -14.615071 -3.759904 8.220568 3.250129 0.108978 -0.003601 15.158132 24.800268 -20.915234 74.605011 11.599951 19.165833 -13.774890 -8.294744 24.336710 22.096411 -14.570998 -45.934509 17.074116 17.029177 -13.446243 37.603481 30.445015 -36.515820 50.499607 -18.865604 -14.017330 -2.226871 -9.458474 12.648862 15.115297 -1.803225 8.837781 
